# xmcd
#
# Track frame offsets: 
#        150
#        15075
#        41250
#        63075
#        84225
#        108975
#        119925
#        137400
#        153225
#        180300
#
# Disc length: 2683 seconds
#
# Revision: 0
# Processed by: cddbd v1.5.2PL0 Copyright (c) Steve Scherf et al.
# Submitted via: ExactAudioCopy v1.1
#
DISCID=690a790a
DTITLE=Max Meazza and Pueblo - In Cold Blood
DYEAR=2014
DGENRE=Blues
TTITLE0=Bad Rain
TTITLE1=Jimmy Valentine Blues
TTITLE2=Burning Fire
TTITLE3=In Cold Blood
TTITLE4=Black And White Generation
TTITLE5=Bluesman
TTITLE6=Bottle Of  J and B
TTITLE7=Live Fast Die Young
TTITLE8=Mama's Right
TTITLE9=Good Man Down
EXTD=
EXTT0=
EXTT1=
EXTT2=
EXTT3=
EXTT4=
EXTT5=
EXTT6=
EXTT7=
EXTT8=
EXTT9=
PLAYORDER=
